<svg xmlns="http://www.w3.org/2000/svg" viewBox="-330 -60 442 112" role="img" aria-label="veradis">
<defs><radialGradient id="vdg" gradientUnits="userSpaceOnUse" cx="19" cy="-4" r="20"><stop offset="0" stop-color="#FFFFFF" stop-opacity=".95"/><stop offset=".4" stop-color="#FFF3D6" stop-opacity=".5"/><stop offset="1" stop-color="#FFFFFF" stop-opacity="0"/></radialGradient><clipPath id="vfc"><path d="M0,-52 L46,44 L-46,44 Z"/></clipPath></defs>
  <path d="M-58,-13 L-19,-13" stroke="#FFF3D6" stroke-width="1.6" stroke-linecap="round" opacity=".92"/>
  <path d="M19,-12 L98,-26 L98.5,-17 L21,-8 Z" fill="#E8B54B"/>
  <path d="M21,-8 L98.5,-17 L99,-8 L23,-4 Z" fill="#E8B54B" fill-opacity=".68"/>
  <path d="M23,-4 L99,-8 L99.5,1 L25,0 Z" fill="#E8B54B" fill-opacity=".42"/>
  <path d="M25,0 L99.5,1 L100,10 L27,4 Z" fill="#E8B54B" fill-opacity=".22"/>
  <path d="M0,-52 L0,44 L-46,44 Z" fill="#C9963B" fill-opacity=".2"/>
  <path d="M0,-52 L46,44 L0,44 Z" fill="#C9963B" fill-opacity=".07"/>
  <g clip-path="url(#vfc)">
    <path d="M-19,-13 L19,-12 L27,4 Z" fill="#FFF3D6" opacity=".18"/>
    <circle cx="19" cy="-4" r="17" fill="url(#vdg)"/>
    <circle cx="20" cy="-4" r="6.5" fill="#FFF9E8" opacity=".9"/>
  </g>
  <path d="M0,-52 L0,44" stroke="#F3C871" stroke-width="1.2" opacity=".3"/>
  <path d="M0,-52 L46,44 L-46,44 Z" fill="none" stroke="#D4A565" stroke-width="2.4" stroke-linejoin="round"/>
<text x="-64" y="27" text-anchor="end" font-family="Instrument Sans, system-ui, sans-serif" font-weight="600" font-size="62.6" letter-spacing="-0.94" fill="#FAF6EC">veradis</text>
</svg>