<svg xmlns="http://www.w3.org/2000/svg" viewBox="0 0 64 64">
<defs><radialGradient id="vdg" gradientUnits="userSpaceOnUse" cx="19" cy="-4" r="20"><stop offset="0" stop-color="#FFFFFF" stop-opacity=".95"></stop><stop offset=".4" stop-color="#FFF3D6" stop-opacity=".5"></stop><stop offset="1" stop-color="#FFFFFF" stop-opacity="0"></stop></radialGradient><clipPath id="fvc"><path d="M0,-52 L46,44 L-46,44 Z"></path></clipPath></defs>
<rect width="64" height="64" rx="14" fill="#1A1714"></rect>
<g transform="translate(32,32) scale(.36) translate(-27,4)">
  <path d="M-58,-13 L-19,-13" stroke="#FFF3D6" stroke-width="1.6" stroke-linecap="round" opacity=".92"></path>
  <path d="M19,-12 L98,-26 L98.5,-17 L21,-8 Z" fill="#E8B54B"></path>
  <path d="M21,-8 L98.5,-17 L99,-8 L23,-4 Z" fill="#E8B54B" fill-opacity=".68"></path>
  <path d="M23,-4 L99,-8 L99.5,1 L25,0 Z" fill="#E8B54B" fill-opacity=".42"></path>
  <path d="M25,0 L99.5,1 L100,10 L27,4 Z" fill="#E8B54B" fill-opacity=".22"></path>
  <path d="M0,-52 L0,44 L-46,44 Z" fill="#C9963B" fill-opacity=".2"></path>
  <path d="M0,-52 L46,44 L0,44 Z" fill="#C9963B" fill-opacity=".07"></path>
  <g clip-path="url(#fvc)">
    <path d="M-19,-13 L19,-12 L27,4 Z" fill="#FFF3D6" opacity=".18"></path>
    <circle cx="19" cy="-4" r="17" fill="url(#vdg)"></circle>
    <circle cx="20" cy="-4" r="6.5" fill="#FFF9E8" opacity=".9"></circle>
  </g>
  <path d="M0,-52 L0,44" stroke="#F3C871" stroke-width="1.2" opacity=".3"></path>
  <path d="M0,-52 L46,44 L-46,44 Z" fill="none" stroke="#D4A565" stroke-width="2.4" stroke-linejoin="round"></path></g>
</svg>